<svg xmlns="http://www.w3.org/2000/svg" viewBox="0 0 100 125" x="0px" y="0px"><path d="M66.05,49H51V34a1,1,0,0,0-2,0V49H34a1,1,0,0,0,0,2H49v15a1,1,0,0,0,2,0V51h15a1,1,0,0,0,0-2Z"/><path d="M78.77,4H21.23A17.25,17.25,0,0,0,4,21.23V78.77A17.25,17.25,0,0,0,21.23,96H78.77A17.25,17.25,0,0,0,96,78.77V21.23A17.25,17.25,0,0,0,78.77,4ZM94,78.77A15.24,15.24,0,0,1,78.77,94H21.23A15.24,15.24,0,0,1,6,78.77V21.23A15.24,15.24,0,0,1,21.23,6H78.77A15.24,15.24,0,0,1,94,21.23Z"/><text x="0" y="115" fill="#000000" font-size="5px" font-weight="bold" font-family="'Helvetica Neue', Helvetica, Arial-Unicode, Arial, Sans-serif">Created by Abigail Kowalczyk</text><text x="0" y="120" fill="#000000" font-size="5px" font-weight="bold" font-family="'Helvetica Neue', Helvetica, Arial-Unicode, Arial, Sans-serif">from the Noun Project</text></svg>