<svg xmlns="http://www.w3.org/2000/svg" xmlns:xlink="http://www.w3.org/1999/xlink" version="1.1" x="0px" y="0px" viewBox="0 0 100 125" enable-background="new 0 0 100 100" xml:space="preserve"><path d="M92.878,12.877c0,1.021-0.398,1.981-1.12,2.704L55.509,51.832c-0.984,0.85-5.537,2.229-10.853,3.374  c1.599-4.993,3.295-9.14,4.176-10.027L85.094,8.916c0.723-0.72,1.683-1.12,2.704-1.12c1.021,0,1.981,0.4,2.702,1.12l1.259,1.259  C92.481,10.898,92.878,11.857,92.878,12.877z M80.369,36.289v51.495c0,2.436-1.983,4.419-4.419,4.419H11.541  c-2.436,0-4.419-1.983-4.419-4.419v-62.48c0-2.436,1.983-4.419,4.419-4.419h52.266L44.173,40.52  c-1.063,1.061-2.603,3.229-5.105,10.62c-1.305,3.855-2.247,7.308-2.287,7.453c-0.297,1.083-0.018,2.24,0.734,3.073  c0.63,0.698,1.522,1.087,2.445,1.087c0.18,0,0.36-0.015,0.54-0.046c0.158-0.026,3.93-0.655,8.11-1.643  c8.107-1.918,10.429-3.444,11.547-4.562L80.369,36.289z M74.775,72.914c0-1.819-1.474-3.295-3.295-3.295  c-1.819,0-3.295,1.476-3.295,3.295v6.864c0,0.051-0.04,0.09-0.09,0.09H21.199c-1.821,0-3.295,1.476-3.295,3.295  c0,1.821,1.474,3.295,3.295,3.295h46.896c3.684,0,6.68-2.996,6.68-6.68V72.914z"/><text x="0" y="115" fill="#000000" font-size="5px" font-weight="bold" font-family="'Helvetica Neue', Helvetica, Arial-Unicode, Arial, Sans-serif">Created by rdesign</text><text x="0" y="120" fill="#000000" font-size="5px" font-weight="bold" font-family="'Helvetica Neue', Helvetica, Arial-Unicode, Arial, Sans-serif">from the Noun Project</text></svg>